<?xml version="1.0" standalone="no"?>
<!DOCTYPE svg PUBLIC "-//W3C//DTD SVG 20010904//EN"
 "http://www.w3.org/TR/2001/REC-SVG-20010904/DTD/svg10.dtd">
<svg version="1.0" xmlns="http://www.w3.org/2000/svg"
 width="1024.000000pt" height="1024.000000pt" viewBox="0 0 1024.000000 1024.000000"
 preserveAspectRatio="xMidYMid meet">

<g transform="translate(0.000000,1024.000000) scale(0.100000,-0.100000)"
fill="#000000" stroke="none">
<path d="M5041 7492 c-276 -513 -785 -1467 -981 -1837 -491 -931 -660 -1247
-702 -1322 l-29 -53 434 0 435 0 42 83 c24 45 98 186 165 312 67 127 211 401
320 610 313 604 388 745 395 745 3 0 65 -114 137 -252 l131 -253 -170 -5 -171
-5 -148 -285 c-82 -157 -148 -288 -149 -292 0 -5 213 -8 474 -8 l474 0 21 -35
c11 -19 89 -165 172 -325 l152 -290 429 0 c235 0 428 4 428 8 0 4 -31 66 -68
137 -127 239 -844 1589 -1429 2690 -209 393 -276 515 -283 515 -3 0 -38 -62
-79 -138z"/>
<path d="M4580 7231 c-129 -49 -437 -163 -685 -255 -247 -92 -460 -171 -472
-176 l-23 -10 0 -1082 0 -1083 118 215 117 215 5 784 5 784 507 186 507 185
52 101 c29 55 67 128 86 163 19 34 31 62 26 61 -4 0 -114 -40 -243 -88z"/>
<path d="M5466 7218 c30 -57 69 -131 86 -164 l31 -61 505 -184 504 -184 5
-777 5 -777 110 -208 c61 -114 114 -212 119 -218 5 -5 8 433 7 1070 l-3 1079
-265 98 c-256 95 -386 143 -910 337 -134 50 -245 91 -247 91 -1 0 22 -46 53
-102z"/>
<path d="M6291 4088 c-84 -196 -147 -340 -190 -437 -28 -62 -51 -117 -51 -122
0 -5 44 -9 99 -9 l98 0 21 50 21 50 151 0 152 0 21 -50 21 -50 104 0 c95 0
104 2 98 18 -4 9 -64 146 -134 304 l-127 288 -133 0 -133 0 -18 -42z m204
-222 l43 -106 -94 0 c-52 0 -94 1 -94 3 0 1 16 41 36 87 20 47 40 96 45 109 5
13 12 21 15 18 3 -3 25 -53 49 -111z"/>
<path d="M3440 4055 l0 -65 -45 0 -45 0 0 -65 0 -65 44 0 c31 0 46 -5 50 -16
3 -9 6 -65 6 -126 0 -86 4 -116 17 -139 32 -54 119 -77 237 -64 l66 7 0 67 0
68 -50 -5 c-78 -7 -90 9 -90 120 l0 88 70 0 70 0 0 65 0 65 -70 0 -70 0 0 65
0 65 -95 0 -95 0 0 -65z"/>
<path d="M4020 4004 c-132 -26 -194 -82 -210 -191 -18 -131 22 -223 119 -270
50 -25 67 -28 186 -31 79 -1 154 3 190 10 l60 13 3 68 c3 62 1 68 -15 63 -48
-15 -133 -26 -202 -26 -83 0 -143 21 -149 53 -3 16 11 17 192 17 l196 0 0 70
c0 109 -36 169 -124 205 -40 17 -196 28 -246 19z m164 -145 c14 -11 26 -29 26
-40 0 -18 -8 -19 -103 -19 -57 0 -106 3 -110 6 -10 10 14 51 37 62 38 19 121
14 150 -9z"/>
<path d="M4598 4000 c-111 -14 -108 -12 -108 -87 0 -64 0 -65 24 -59 61 15
185 27 221 21 49 -7 85 -30 85 -53 0 -15 -14 -17 -133 -17 -116 -1 -137 -3
-173 -22 -72 -38 -96 -138 -49 -209 50 -76 269 -88 346 -18 18 16 19 16 19 -9
l0 -27 90 0 90 0 0 163 c0 89 -5 178 -10 198 -12 42 -51 82 -102 103 -45 19
-208 28 -300 16z m222 -315 c0 -17 -9 -29 -30 -40 -39 -20 -134 -20 -154 1
-19 18 -19 20 -6 45 9 17 22 19 100 19 89 0 90 0 90 -25z"/>
<path d="M5393 4000 c-36 -8 -82 -35 -100 -59 -10 -14 -12 -11 -13 17 l0 32
-90 0 -90 0 0 -235 0 -235 95 0 95 0 0 141 c0 77 4 149 10 159 21 39 103 47
143 12 15 -13 17 -35 17 -164 l0 -148 95 0 95 0 0 140 c0 136 1 142 25 165 32
33 103 35 131 4 16 -18 19 -40 22 -165 l3 -144 92 0 92 0 -3 167 c-1 93 -7
184 -12 205 -34 121 -247 156 -356 57 -20 -19 -21 -19 -44 6 -25 27 -106 56
-149 54 -14 -1 -41 -4 -58 -9z"/>
<path d="M3390 3295 l0 -55 370 0 369 0 348 -196 c191 -108 414 -234 495 -280
l146 -83 314 176 c172 96 395 222 495 279 l183 104 370 0 371 0 -3 53 -3 52
-1727 3 -1728 2 0 -55z m2005 -176 c-121 -66 -230 -127 -242 -135 -12 -8 -26
-14 -31 -14 -8 0 -195 101 -437 236 l-60 34 495 0 494 0 -219 -121z"/>
</g>
</svg>
